<?xml version="1.0" standalone="no"?>
<!DOCTYPE svg PUBLIC "-//W3C//DTD SVG 20010904//EN"
 "http://www.w3.org/TR/2001/REC-SVG-20010904/DTD/svg10.dtd">
<svg version="1.0" xmlns="http://www.w3.org/2000/svg"
 width="800.000000pt" height="800.000000pt" viewBox="0 0 800.000000 800.000000"
 preserveAspectRatio="xMidYMid meet">
<metadata>
Created by potrace 1.11, written by Peter Selinger 2001-2013
</metadata>
<g transform="translate(0.000000,800.000000) scale(0.100000,-0.100000)"
fill="#000000" stroke="none">
<path d="M3876 7453 c-2 -2 -14 -5 -27 -7 -90 -11 -269 -83 -353 -142 -17 -12
-24 -9 -60 27 -67 68 -106 82 -216 83 -58 0 -85 -5 -117 -22 -46 -24 -123 -98
-123 -119 0 -7 -4 -13 -9 -13 -12 0 -24 -55 -27 -131 -2 -57 2 -75 27 -125 17
-33 45 -72 64 -89 l33 -30 -68 -102 c-91 -135 -195 -328 -270 -498 -12 -27
-27 -63 -35 -80 -26 -58 -115 -305 -115 -318 0 -8 -3 -17 -7 -21 -5 -4 -9 -12
-9 -17 -1 -5 -2 -10 -4 -11 -1 -2 -3 -11 -5 -21 -2 -10 -7 -26 -11 -35 -4 -9
-8 -21 -10 -27 -8 -32 -54 -195 -63 -222 -5 -18 -8 -33 -5 -33 3 0 0 -8 -5
-17 -5 -10 -12 -31 -15 -48 -3 -16 -15 -70 -26 -120 -19 -84 -26 -121 -34
-170 -2 -11 -8 -37 -14 -57 -5 -20 -8 -38 -6 -40 2 -2 -11 -19 -27 -38 -60
-68 -177 -229 -229 -316 -80 -132 -230 -444 -213 -444 3 0 1 -6 -4 -12 -5 -7
-16 -33 -23 -58 -7 -25 -17 -49 -21 -55 -6 -8 -51 -177 -65 -240 -26 -127 -31
-160 -41 -280 -11 -149 -7 -311 11 -401 6 -28 35 -150 40 -169 12 -42 100
-225 109 -225 4 0 7 -6 7 -13 0 -7 8 -20 18 -29 9 -9 30 -34 47 -55 45 -59
158 -148 225 -179 68 -31 100 -44 109 -44 6 0 11 -8 12 -17 0 -10 2 -27 5 -38
5 -24 13 -76 20 -130 3 -22 11 -66 19 -98 7 -31 14 -60 14 -62 1 -3 1 -6 2 -7
0 -2 2 -14 5 -28 10 -61 13 -78 23 -130 6 -30 14 -68 17 -85 2 -16 9 -43 14
-60 5 -16 11 -43 14 -60 5 -29 9 -48 21 -105 4 -14 8 -36 11 -50 3 -14 7 -29
8 -35 2 -5 6 -23 10 -40 85 -363 254 -699 431 -857 68 -61 118 -98 131 -98 8
0 14 -4 14 -8 0 -9 40 -26 122 -52 63 -20 201 -20 251 -1 15 6 27 8 27 4 0 -3
8 1 18 9 9 9 27 19 39 22 69 21 191 156 240 266 40 88 81 229 75 253 -1 4 2 7
8 7 5 0 7 7 4 15 -4 9 0 15 7 16 36 3 100 -1 108 -6 6 -3 12 -1 16 5 4 6 10 8
15 5 10 -6 88 -9 109 -4 8 3 15 -6 18 -24 7 -49 53 -198 73 -238 11 -21 18
-39 15 -39 -10 0 89 -135 119 -163 66 -59 147 -106 221 -124 24 -6 148 -7 190
-1 40 5 155 48 155 58 0 4 11 10 24 14 49 12 203 167 280 280 44 66 135 231
141 256 11 42 19 60 27 60 5 0 7 4 3 9 -3 5 -1 12 5 16 5 3 10 16 10 29 0 12
4 26 8 31 5 6 17 37 26 70 10 33 22 71 27 85 7 21 34 133 53 220 3 14 10 43
15 65 6 22 12 54 15 70 3 17 8 39 10 50 10 42 47 221 51 245 3 14 7 36 10 50
8 36 13 60 19 100 3 19 10 59 16 89 5 29 7 57 4 62 -3 5 -2 9 3 9 4 0 9 16 10
37 2 44 1 42 88 78 39 16 72 33 73 37 2 4 9 8 16 8 21 0 158 119 203 177 67
86 138 217 149 273 0 3 3 12 7 20 9 24 37 121 36 128 -1 4 0 9 1 12 18 42 30
312 19 433 -19 209 -78 466 -141 617 -6 14 -14 34 -18 45 -27 71 -95 221 -129
285 -23 41 -46 86 -53 100 -34 66 -199 302 -246 349 -25 26 -40 56 -46 91 -6
37 -22 120 -36 180 -4 19 -13 58 -19 85 -13 60 -42 173 -71 275 -11 41 -27 99
-35 128 -9 30 -19 61 -24 70 -5 9 -9 19 -9 22 -1 13 -84 249 -108 305 -8 19
-14 37 -15 40 0 10 -73 166 -133 285 -69 137 -120 223 -203 344 -57 84 -61 91
-52 91 11 0 99 100 99 112 0 7 4 13 8 13 15 0 30 82 28 149 -2 44 -10 80 -24
108 -101 196 -364 218 -497 41 -18 -24 -32 -34 -39 -29 -34 26 -232 119 -243
113 -2 0 -17 4 -35 9 -18 5 -46 12 -63 16 -34 6 -273 11 -279 6z"/>
</g>
</svg>
